<?xml version="1.0" encoding="UTF-8"?>
<svg id="Layer_2" data-name="Layer 2" xmlns="http://www.w3.org/2000/svg" xmlns:xlink="http://www.w3.org/1999/xlink" viewBox="0 0 50 50">
  <defs>
    <style>
      .cls-1 {
        fill: #fff;
      }

      .cls-2 {
        clip-path: url(#clippath);
      }

      .cls-3 {
        fill: none;
      }

      .cls-4 {
        fill: #3f8fcd;
      }
    </style>
    <clipPath id="clippath">
      <rect class="cls-3" x="0" y="0" width="50" height="50" rx="25" ry="25"/>
    </clipPath>
  </defs>
  <g id="Layer_1-2" data-name="Layer 1">
    <g class="cls-2">
      <rect class="cls-4" x="0" y="0" width="50" height="50" rx="25" ry="25"/>
      <path class="cls-1" d="M45.5,14.94c.5,.48,.75,1.04,.75,1.68,0,1.06-.3,1.83-.89,2.31s-1.53,.67-2.82,.58c-2.89-.22-5.14-.38-6.76-.46-1.62-.08-3.75-.14-6.38-.17-1.19,5.9-2.28,11.84-3.27,17.81-.35,2.18-.72,4.71-1.11,7.58-.38,2.87-.64,5.19-.77,6.96-.06,.93-.45,1.64-1.16,2.14-.71,.5-1.56,.75-2.55,.75-1.06,0-1.88-.26-2.45-.77-.58-.51-.87-1.19-.87-2.02,0-.77,.12-2.05,.36-3.83,.24-1.78,.52-3.65,.84-5.61,.35-1.96,.63-3.66,.82-5.1,.35-2.44,.75-4.86,1.2-7.27,.45-2.41,.9-4.69,1.35-6.83,.1-.48,.21-1.04,.34-1.66,.13-.63,.27-1.32,.43-2.09-3.15,.1-5.62,.35-7.41,.77-1.8,.42-3.07,1-3.83,1.76-.75,.75-1.13,1.73-1.13,2.91,0,1.09,.32,2.13,.96,3.13,.13,.22,.19,.46,.19,.72,0,.61-.36,1.18-1.08,1.71-.72,.53-1.47,.79-2.24,.79-.55,0-.99-.16-1.35-.48-.64-.54-1.17-1.32-1.59-2.33s-.63-2.16-.63-3.44c0-2.73,.89-4.92,2.67-6.57,1.78-1.65,4.49-2.86,8.13-3.63,3.64-.77,8.32-1.16,14.03-1.16,3.53,0,6.35,.06,8.45,.19,2.1,.13,3.94,.34,5.51,.63,.99,.19,1.74,.53,2.24,1.01Z"/>
    </g>
  </g>
</svg>