<?xml version="1.0" encoding="UTF-8"?>
<svg id="Layer_2" data-name="Layer 2" xmlns="http://www.w3.org/2000/svg" xmlns:xlink="http://www.w3.org/1999/xlink" viewBox="0 0 50 50">
  <defs>
    <style>
      .cls-1 {
        clip-path: url(#clippath);
      }

      .cls-2 {
        font-family: Pacifico-Regular, Pacifico;
        font-size: 5.41px;
      }

      .cls-2, .cls-3 {
        fill: #4a494a;
      }

      .cls-4 {
        fill: none;
      }

      .cls-5 {
        fill: #e7f6fd;
      }

      .cls-6 {
        fill: #3f8fcd;
      }
    </style>
    <clipPath id="clippath">
      <rect class="cls-4" x="0" y="0" width="50" height="50" rx="25" ry="25"/>
    </clipPath>
  </defs>
  <g id="Layer_1-2" data-name="Layer 1">
    <g class="cls-1">
      <rect class="cls-6" x="0" y="0" width="50" height="50" rx="25" ry="25"/>
      <path class="cls-5" d="M42.22,32.42h-.23v-13.1h-.55v-1.48h-2.77v1.85h-2.03v9.97h-.37v-12.55h-.74v-1.48h-2.95v1.48h-.74v-2.65l-.68-.49-.62,.49v3.01h-1.11v7.38h-.92v-1.11h-1.66v1.29h-3.88v2.21h-.92v-1.11h-2.4v1.29h-2.58v4.43h-1.85V15.44h-2.4v-2.21h-2.21v2.21h-1.29v17.79s13.85-.02,32.71-.05c0-.2,.05-.41,.15-.59,0-.06,.02-.12,.04-.18Z"/>
      <circle class="cls-5" cx="25.77" cy="39.64" r="16.4"/>
      <circle class="cls-5" cx="38.42" cy="41.04" r="10.18"/>
      <circle class="cls-5" cx="10.81" cy="41.04" r="10.18"/>
    </g>
    <path class="cls-3" d="M19.87,11.05l-1.44-.81c-.05-.03-.05-.1,0-.13l.35-.24s.05-.02,.07,0l1.51,.52c.14,.05,.3,.02,.42-.07l1.84-1.38c.19-.14,.22-.41,.06-.59-.35-.39-1.23-1.06-3.49-1.83-.09-.03-.11-.14-.05-.2,.15-.14,.46-.35,1.08-.49,.11-.02,.23-.02,.34,.02l1.4,.47,.68-.37c.3-.16,.67,.09,.6,.42,0,0,0,0,0,.01h0c-.07,.15,0,.33,.15,.38l1.33,.45c.18,.06,.39,.04,.55-.05l2.55-1.46c.19-.11,.4-.19,.62-.24,.71-.16,2.13-.33,1.08,1.18-.1,.14-.22,.26-.36,.36l-2.79,1.93c-.2,.14-.25,.21-.25,.29l-.17,1.75c0,.06,.04,.11,.1,.12,.22,0,.66,.08,.5,.52-.03,.1-.1,.18-.18,.24l-.46,.34c-.11,.08-.15,.15-.16,.24l-.14,1.48s-.02,.07-.05,.09l-.96,.84s-.29,.06-.27-.33,.01-3.01,.01-3.01c0,0-.22-1.14-.57-1.08-.26,.05-1.42,.69-2.02,1.04-.23,.13-.39,.37-.42,.63l-.14,1.15c-.01,.1-.06,.18-.14,.24l-.3,.22c-.1,.07-.24,.01-.25-.11l-.13-1.19c-.02-.18-.19-.3-.37-.26l-.35,.08s-.87,.18-.24-.47,.48-.67,.48-.67Z"/>
    <text class="cls-2" transform="translate(12.86 40.69)"><tspan x="0" y="0">TOURTO</tspan></text>
  </g>
</svg>